<svg width="11" height="13" viewBox="0 0 11 13" fill="none" xmlns="http://www.w3.org/2000/svg">
<path d="M8.68765 5.44378L5.56265 9.19378C5.53363 9.22865 5.49916 9.25631 5.46122 9.27518C5.42329 9.29405 5.38262 9.30376 5.34155 9.30376C5.30049 9.30376 5.25982 9.29405 5.22189 9.27518C5.18395 9.25631 5.14948 9.22865 5.12046 9.19378L1.99546 5.44378C1.95171 5.39133 1.92191 5.32449 1.90983 5.25171C1.89775 5.17893 1.90394 5.10348 1.92761 5.03492C1.95128 4.96636 1.99137 4.90777 2.04281 4.86657C2.09425 4.82537 2.15471 4.80341 2.21655 4.80347H8.46655C8.5284 4.80341 8.58886 4.82537 8.6403 4.86657C8.69173 4.90777 8.73183 4.96636 8.7555 5.03492C8.77917 5.10348 8.78536 5.17893 8.77328 5.25171C8.7612 5.32449 8.7314 5.39133 8.68765 5.44378Z" fill="#242424"/>
</svg>
