<svg width="81" height="31" viewBox="0 0 81 31" fill="none" xmlns="http://www.w3.org/2000/svg">
<path d="M47.4723 30.3804V25.8534C47.3593 25.9774 47.2763 26.0474 47.2183 26.1334C46.3853 27.3564 45.4283 28.4534 44.1573 29.2454C43.4054 29.7177 42.5678 30.0372 41.6923 30.1854C41.3943 30.2354 40.7143 30.2774 40.4073 30.2724C39.5333 30.2574 39.0163 30.2794 38.1573 30.0274C36.1403 29.4374 34.6553 28.1944 33.6793 26.3444C32.9363 24.9374 32.6073 23.4244 32.5163 21.8434C32.4143 20.0434 32.6013 18.2864 33.2403 16.5944C34.1353 14.2274 35.7053 12.4644 37.9813 11.3224C39.5793 10.5214 41.2703 10.1344 43.0403 10.0304C44.2853 9.95635 45.5163 10.0414 46.7293 10.3544C46.8663 10.3884 47.0033 10.4324 47.1693 10.4804C47.1693 10.3254 47.1763 10.1974 47.1693 10.0674C47.1163 9.08335 47.0813 8.10035 46.9963 7.11835C46.8503 5.42235 45.8663 4.29535 44.4423 3.48535C44.3573 3.43835 44.2743 3.38835 44.1133 3.29235L52.4613 0.927352C52.4613 1.24935 52.4683 1.53335 52.4613 1.81635C52.4263 3.09035 52.3653 4.36535 52.3523 5.64035C52.3133 9.73735 52.2653 13.8324 52.2743 17.9304C52.2783 20.0004 52.3853 22.0694 52.4783 24.1384C52.5203 25.0394 52.6503 25.9364 52.9573 26.7964C53.3023 27.7664 53.9023 28.4594 55.0393 29.1544C52.5553 29.5384 49.9003 30.0034 47.4743 30.3774M47.2653 18.5294C47.2653 16.7294 47.2633 14.9314 47.2703 13.1314C47.2703 12.9444 47.2093 12.8554 47.0463 12.7554C46.3063 12.3014 45.4983 12.0654 44.6533 11.9304C43.4733 11.7414 42.3423 11.8784 41.3033 12.4974C39.9743 13.2874 39.2013 14.5074 38.7243 15.9374C38.1703 17.6004 38.0483 19.3134 38.1903 21.0504C38.2643 21.9624 38.4333 22.8594 38.7833 23.7104C39.4963 25.4404 40.7923 26.3944 42.6503 26.5944C44.2113 26.7644 45.6873 26.4184 47.1293 25.8584C47.3193 25.7844 47.3493 25.6544 47.3393 25.4734C47.3093 24.6534 47.2723 23.8304 47.2653 23.0074C47.2553 21.5154 47.2633 20.0234 47.2613 18.5314L47.2653 18.5294ZM0.518284 25.6034C0.570284 24.1204 1.36628 23.0934 1.67828 22.7344C2.58528 21.6964 3.78528 21.1344 5.06828 20.7304C7.03528 20.1114 9.05728 19.9604 11.1043 20.1114C11.3673 20.1314 11.4543 20.0554 11.4613 19.7904C11.4783 18.9674 11.5613 18.1444 11.5443 17.3234C11.5173 16.0534 11.0303 15.0024 9.89628 14.3314C9.29428 13.9754 8.62228 13.8254 7.93328 13.7604C5.83128 13.5664 3.90928 14.1604 2.06828 15.1064C2.02228 15.1304 1.97428 15.1524 1.86128 15.2084C1.90728 15.0654 1.92928 14.9764 1.96128 14.8914C2.73728 12.8824 4.13128 11.4624 6.12028 10.6714C8.45928 9.74135 10.8223 9.72535 13.1333 10.7834C15.1963 11.7274 16.2963 13.4104 16.5263 15.6274C16.6263 16.5914 16.5763 17.5774 16.5093 18.5474C16.3743 20.5544 16.3043 22.5584 16.4373 24.5654C16.5413 26.1724 17.2963 27.3334 18.8393 27.9224C19.0493 28.0024 19.2613 28.0874 19.4693 28.1694L19.7043 28.2674C19.5173 28.4264 19.3673 28.5654 19.2063 28.6884C18.1763 29.4814 17.0243 30.0224 15.7353 30.1784C15.1065 30.2571 14.469 30.2321 13.8483 30.1044C12.7743 29.8744 12.1543 29.0664 11.7783 28.0944C11.5703 27.5534 11.4633 26.9734 11.3043 26.3874C11.2593 26.4524 11.1963 26.5304 11.1503 26.6154C10.1613 28.4084 8.71128 29.6784 6.70028 30.1004C5.51128 30.3504 4.32428 30.3364 3.23528 29.8634C2.82479 29.6863 2.44241 29.4501 2.10028 29.1624C1.46934 28.619 0.997015 27.9152 0.733284 27.1254C0.572848 26.6352 0.499407 26.1208 0.516284 25.6054L0.518284 25.6034ZM11.3873 23.2144C11.3873 23.2144 11.3973 21.4314 11.4003 20.5284C11.4003 20.3784 11.4003 20.2484 11.1903 20.2874C9.89828 20.5264 8.61328 20.7954 7.45728 21.4494C6.31328 22.0944 5.56128 22.9994 5.62228 24.4064C5.66528 25.4254 6.13928 26.1244 7.08728 26.4694C8.50028 26.9844 9.86528 26.6894 11.2073 26.1724C11.2723 26.1484 11.3353 26.0264 11.3373 25.9484C11.3463 25.0454 11.3893 24.1184 11.3893 23.2144H11.3873ZM27.0603 0.121352C28.6153 0.106352 29.8693 1.81235 29.5803 3.49735C29.3013 5.13035 27.6713 6.50935 26.0133 6.46735C24.8103 6.43735 23.8453 5.94235 23.2833 4.85435C22.7283 3.78235 22.8673 2.72235 23.5153 1.72135C23.9913 0.985352 24.6673 0.503352 25.4853 0.223352C25.7323 0.138352 26.0123 0.147352 26.2953 0.110352M55.7383 12.3434C58.4593 11.5584 61.1513 10.7784 63.8703 9.99435L63.7443 14.2294C63.7843 14.2504 63.8223 14.2724 63.8593 14.2944C63.9113 14.2114 63.9533 14.1224 64.0183 14.0514C65.0963 12.8634 66.2833 11.8034 67.7093 11.0544C69.5893 10.0684 71.5763 9.71035 73.6693 10.2514C74.8963 10.5684 75.8183 11.2934 76.4653 12.3794C77.0913 13.4254 77.3633 14.5804 77.5113 15.7704C77.7053 17.3194 77.6683 18.8734 77.6653 20.4304C77.6633 22.2284 77.6553 24.0284 77.9453 25.8164C78.1943 27.3384 78.8553 28.6044 80.1053 29.5374C80.1743 29.5894 80.2553 29.6314 80.3023 29.7244C76.6053 29.7074 72.9393 29.5464 69.2573 29.7594C69.5503 29.4994 69.8463 29.2394 70.1373 28.9774C70.9203 28.2764 71.6133 27.5094 71.9723 26.4954C72.2683 25.6554 72.4293 24.7804 72.4653 23.8944C72.5183 22.5844 72.5403 21.2734 72.5263 19.9614C72.521 18.8755 72.3772 17.7948 72.0983 16.7454C71.9003 16.0144 71.5853 15.3434 71.0533 14.7804C70.4703 14.1664 69.7403 13.9004 68.9273 13.8184C67.3073 13.6584 65.7373 13.9624 64.1833 14.3744C64.0923 14.3984 63.9903 14.5304 63.9683 14.6284C63.9273 14.8114 63.9353 15.0064 63.9353 15.1954C63.9353 17.0414 63.9203 18.8864 63.9403 20.7324C63.9533 22.1074 63.9943 23.4794 64.0503 24.8524C64.0833 25.6294 64.2163 26.3954 64.5033 27.1274C64.8903 28.1084 65.6243 28.7974 66.4443 29.4144C66.5873 29.5224 66.7373 29.6224 66.8813 29.7594C63.2645 29.611 59.6428 29.6253 56.0273 29.8024C56.1813 29.6574 56.2793 29.5684 56.3703 29.4744C56.7883 29.0474 57.2293 28.6434 57.6123 28.1844C58.3523 27.2964 58.6683 26.2154 58.7143 25.0944C58.7923 23.1904 58.7903 21.2814 58.7923 19.3754C58.7923 18.5634 58.7403 17.7494 58.6773 16.9394C58.5493 15.2864 57.8773 13.9164 56.5103 12.9264C56.2553 12.7434 56.0123 12.5464 55.7463 12.3404L55.7383 12.3444V12.3434ZM31.4753 29.7574H20.1983C20.3133 29.6574 20.3883 29.5894 20.4673 29.5224C21.3193 28.8034 22.0743 28.0044 22.4713 26.9364C22.7613 26.1564 22.8803 25.3384 22.9013 24.5164C22.9473 22.7824 22.9713 21.0474 22.9563 19.3124C22.9463 18.0854 22.8893 16.8564 22.5503 15.6604C22.2843 14.7324 21.7673 13.9794 21.0543 13.3504C20.6763 13.0154 20.2873 12.6914 19.8823 12.3444L28.2153 9.99035C28.2153 10.1334 28.2193 10.2184 28.2153 10.3034C28.1863 10.8264 28.1363 11.3494 28.1303 11.8734C28.1153 13.1024 28.1233 14.3314 28.1153 15.5604C28.1043 16.8264 28.0583 18.0924 28.0693 19.3554C28.0823 20.9454 28.1103 22.5374 28.1913 24.1264C28.2283 24.8514 28.3693 25.5794 28.5303 26.2894C28.7953 27.4614 29.5003 28.3524 30.4673 29.0424C30.8123 29.2904 31.1583 29.5324 31.4773 29.7574H31.4753Z" fill="#121212"/>
</svg>
