<svg xmlns="http://www.w3.org/2000/svg" width="122" height="25" fill="none"><g clip-path="url(#a)"><path fill="#242424" d="M22.083 10.357h3.342c.36.001.65.292.65.651v3.345a.652.652 0 0 1-.65.651h-3.348a.65.65 0 0 0-.649.651v7.992a.652.652 0 0 1-.65.651h-8.643v-.006c-6.418 0-11.62-5.2-11.62-11.617C.515 6.26 5.717 1.06 12.135 1.06v.005h4a.651.651 0 0 1 .648.651v3.348a.65.65 0 0 0 .651.648h3.347a.65.65 0 0 0 .65-.635V1.713a.652.652 0 0 1 .65-.649h3.351a.651.651 0 0 1 .648.651v3.346a.65.65 0 0 1-.65.65h-3.347a.65.65 0 0 0-.65.65v3.345c0 .36.291.651.65.651Zm-9.295 0h3.347a.652.652 0 0 0 .651-.65V6.36a.65.65 0 0 0-.65-.65h-3.349a.65.65 0 0 0-.649.65v3.346c0 .36.291.65.65.65Zm7.995 4.647a.65.65 0 0 0 .65-.65v-3.346a.65.65 0 0 0-.649-.65h-3.349a.651.651 0 0 0-.65.65v3.345c0 .36.292.651.651.651h3.347Zm96.285-5.348v6.173c0 .792.281 1.048 1.304 1.048h2.143v2.655h-2.376c-2.841 0-3.96-1.095-3.96-3.564V4.205h2.888v2.982h3.448v2.47h-3.447Zm-75.22-2.819c-3.82 0-6.732 2.795-6.732 6.521 0 3.751 2.912 6.521 6.731 6.521 3.098 0 5.591-1.723 6.29-4.378l-2.702-.745c-.536 1.7-1.793 2.586-3.588 2.586-2.212 0-3.842-1.608-3.842-3.984s1.63-3.983 3.842-3.983c1.795 0 3.075.955 3.588 2.585l2.701-.745c-.698-2.655-3.19-4.378-6.289-4.378Zm8.058.35v7.174h.002c0 3.448 2.097 5.521 5.521 5.521 1.84 0 3.33-.582 4.332-1.63h.046v1.28h2.795V7.187h-2.889v6.708c0 1.98-1.373 3.378-3.54 3.378-2.168 0-3.378-1.235-3.378-3.378V7.187h-2.889Zm15.256.001h2.748v1.188h.046c.84-.886 2.027-1.422 3.471-1.422.7 0 1.305.117 1.98.327l-.628 2.632c-.652-.186-1.095-.257-1.747-.257-1.794 0-2.98 1.211-2.98 3.657v6.22h-2.89V7.187Zm12.508 0h-2.748v12.344h2.888v-6.219c0-2.446 1.188-3.657 2.982-3.657.652 0 1.095.071 1.747.257l.628-2.632c-.675-.21-1.28-.327-1.98-.327-1.444 0-2.632.536-3.47 1.422h-.047V7.188Zm5.753 6.22c0-3.867 2.771-6.57 6.638-6.57 3.868 0 6.592 2.866 6.592 6.592v.862H86.288c.093 1.934 1.654 3.191 3.914 3.191 1.677 0 2.89-.675 4.03-2.096l1.933 1.723c-1.374 1.77-3.307 2.772-5.94 2.772-4.216 0-6.802-2.563-6.802-6.475Zm10.388-1.212c-.162-1.723-1.677-2.958-3.703-2.958-2.027 0-3.587 1.234-3.773 2.958h7.476Zm7.757-5.008h-2.795l-.002.001v12.345h2.888v-6.73c0-2.005 1.606-3.379 3.75-3.379s3.471 1.257 3.471 3.353v6.755h2.889v-7.197c0-3.262-2.375-5.498-5.893-5.498-1.676 0-3.26.582-4.262 1.63h-.046v-1.28Z"/></g><defs><clipPath id="a"><path fill="#fff" d="M.06.678h121v24H.06z"/></clipPath></defs></svg>